<mxfile host="app.diagrams.net" modified="2024-06-29T16:49:54.198Z" agent="Mozilla/5.0 (Windows NT 10.0; Win64; x64) AppleWebKit/537.36 (KHTML, like Gecko) Chrome/126.0.0.0 Safari/537.36" version="24.6.4" etag="5zmoRGw1UCF3AjainMCX" type="github">
  <diagram name="Page-1" id="qq7UrAfPB-x78BGdBKhx">
    <mxGraphModel>
      <root>
        <mxCell id="0" />
        <mxCell id="1" parent="0" />
      </root>
    </mxGraphModel>
  </diagram>
</mxfile>
